<svg width="28" height="28" viewBox="0 0 28 28" fill="none" xmlns="http://www.w3.org/2000/svg">
<g id="cart">
<path id="Vector" d="M23.1547 14.4703L24.4891 7.15313C24.5123 7.02745 24.5067 6.89813 24.4726 6.77495C24.4385 6.65178 24.3768 6.53798 24.2922 6.44219C24.2113 6.34329 24.1096 6.26354 23.9942 6.2087C23.8788 6.15385 23.7527 6.12527 23.625 6.125H5.98281L5.44688 3.18281C5.37284 2.78113 5.16064 2.41799 4.84702 2.15631C4.53341 1.89463 4.13814 1.75089 3.72969 1.75H1.75C1.51794 1.75 1.29538 1.84219 1.13128 2.00628C0.967187 2.17038 0.875 2.39294 0.875 2.625C0.875 2.85706 0.967187 3.07962 1.13128 3.24372C1.29538 3.40781 1.51794 3.5 1.75 3.5H3.72969L6.72656 20.0156C6.29928 20.392 5.98538 20.88 5.82012 21.4249C5.65486 21.9698 5.64478 22.55 5.79101 23.1003C5.93724 23.6506 6.23399 24.1492 6.64794 24.5402C7.06189 24.9311 7.57664 25.199 8.13439 25.3136C8.69214 25.4282 9.27079 25.385 9.80536 25.189C10.3399 24.9929 10.8093 24.6517 11.1606 24.2036C11.512 23.7556 11.7315 23.2184 11.7945 22.6525C11.8575 22.0866 11.7615 21.5143 11.5172 21H17.3578C17.0734 21.5996 16.9915 22.2753 17.1243 22.9254C17.2571 23.5756 17.5975 24.165 18.0942 24.605C18.5909 25.045 19.2171 25.3117 19.8786 25.3651C20.54 25.4184 21.2009 25.2555 21.7617 24.9008C22.3225 24.5462 22.753 24.0189 22.9883 23.3984C23.2236 22.778 23.251 22.0979 23.0664 21.4605C22.8818 20.8231 22.4952 20.2629 21.9647 19.8643C21.4342 19.4656 20.7886 19.25 20.125 19.25H8.36719L7.88594 16.625H20.5734C21.1878 16.6247 21.7827 16.4089 22.2543 16.0152C22.726 15.6215 23.0446 15.0748 23.1547 14.4703ZM10.0625 22.3125C10.0625 22.5721 9.98552 22.8258 9.8413 23.0417C9.69709 23.2575 9.4921 23.4258 9.25227 23.5251C9.01244 23.6244 8.74854 23.6504 8.49394 23.5998C8.23934 23.5491 8.00548 23.4241 7.82192 23.2406C7.63837 23.057 7.51336 22.8232 7.46272 22.5686C7.41208 22.314 7.43807 22.0501 7.53741 21.8102C7.63675 21.5704 7.80498 21.3654 8.02081 21.2212C8.23665 21.077 8.49041 21 8.75 21C9.0981 21 9.43194 21.1383 9.67808 21.3844C9.92422 21.6306 10.0625 21.9644 10.0625 22.3125ZM21.4375 22.3125C21.4375 22.5721 21.3605 22.8258 21.2163 23.0417C21.0721 23.2575 20.8671 23.4258 20.6273 23.5251C20.3874 23.6244 20.1235 23.6504 19.8689 23.5998C19.6143 23.5491 19.3805 23.4241 19.1969 23.2406C19.0134 23.057 18.8884 22.8232 18.8377 22.5686C18.7871 22.314 18.8131 22.0501 18.9124 21.8102C19.0117 21.5704 19.18 21.3654 19.3958 21.2212C19.6117 21.077 19.8654 21 20.125 21C20.4731 21 20.8069 21.1383 21.0531 21.3844C21.2992 21.6306 21.4375 21.9644 21.4375 22.3125ZM6.3 7.875H22.575L21.4375 14.1531C21.4015 14.3559 21.2951 14.5395 21.137 14.6715C20.979 14.8035 20.7794 14.8756 20.5734 14.875H7.56875L6.3 7.875Z" fill="#087A91"/>
</g>
</svg>
