<svg width="40" height="40" viewBox="0 0 40 40" fill="none" xmlns="http://www.w3.org/2000/svg">
<path d="M20 3.33337C24.5284 3.33337 25.0934 3.35004 26.87 3.43337C28.645 3.51671 29.8534 3.79504 30.9167 4.20837C32.0167 4.63171 32.9434 5.20504 33.87 6.13004C34.7175 6.9632 35.3733 7.97102 35.7917 9.08337C36.2034 10.145 36.4834 11.355 36.5667 13.13C36.645 14.9067 36.6667 15.4717 36.6667 20C36.6667 24.5284 36.65 25.0934 36.5667 26.87C36.4834 28.645 36.2034 29.8534 35.7917 30.9167C35.3745 32.0297 34.7186 33.0377 33.87 33.87C33.0366 34.7172 32.0289 35.373 30.9167 35.7917C29.855 36.2034 28.645 36.4834 26.87 36.5667C25.0934 36.645 24.5284 36.6667 20 36.6667C15.4717 36.6667 14.9067 36.65 13.13 36.5667C11.355 36.4834 10.1467 36.2034 9.08337 35.7917C7.97058 35.3742 6.96259 34.7183 6.13004 33.87C5.28238 33.037 4.62659 32.0292 4.20837 30.9167C3.79504 29.855 3.51671 28.645 3.43337 26.87C3.35504 25.0934 3.33337 24.5284 3.33337 20C3.33337 15.4717 3.35004 14.9067 3.43337 13.13C3.51671 11.3534 3.79504 10.1467 4.20837 9.08337C4.62543 7.97034 5.28138 6.96224 6.13004 6.13004C6.96283 5.28209 7.97076 4.62626 9.08337 4.20837C10.1467 3.79504 11.3534 3.51671 13.13 3.43337C14.9067 3.35504 15.4717 3.33337 20 3.33337ZM20 11.6667C17.7899 11.6667 15.6703 12.5447 14.1075 14.1075C12.5447 15.6703 11.6667 17.7899 11.6667 20C11.6667 22.2102 12.5447 24.3298 14.1075 25.8926C15.6703 27.4554 17.7899 28.3334 20 28.3334C22.2102 28.3334 24.3298 27.4554 25.8926 25.8926C27.4554 24.3298 28.3334 22.2102 28.3334 20C28.3334 17.7899 27.4554 15.6703 25.8926 14.1075C24.3298 12.5447 22.2102 11.6667 20 11.6667ZM30.8334 11.25C30.8334 10.6975 30.6139 10.1676 30.2232 9.7769C29.8325 9.3862 29.3026 9.16671 28.75 9.16671C28.1975 9.16671 27.6676 9.3862 27.2769 9.7769C26.8862 10.1676 26.6667 10.6975 26.6667 11.25C26.6667 11.8026 26.8862 12.3325 27.2769 12.7232C27.6676 13.1139 28.1975 13.3334 28.75 13.3334C29.3026 13.3334 29.8325 13.1139 30.2232 12.7232C30.6139 12.3325 30.8334 11.8026 30.8334 11.25ZM20 15C21.3261 15 22.5979 15.5268 23.5356 16.4645C24.4733 17.4022 25 18.674 25 20C25 21.3261 24.4733 22.5979 23.5356 23.5356C22.5979 24.4733 21.3261 25 20 25C18.674 25 17.4022 24.4733 16.4645 23.5356C15.5268 22.5979 15 21.3261 15 20C15 18.674 15.5268 17.4022 16.4645 16.4645C17.4022 15.5268 18.674 15 20 15Z" fill="#087A91"/>
</svg>
