<svg width="85" height="30" viewBox="0 0 85 30" fill="none" xmlns="http://www.w3.org/2000/svg">
<g id="logo">
<g id="Vector">
<path d="M10.2123 24.0385C8.75647 24.0385 7.48261 23.7179 6.39073 23.0769C5.29884 22.4359 4.44246 21.4637 3.82159 20.1603C3.22212 18.8355 2.92239 17.1688 2.92239 15.1603C2.92239 13.1303 3.21142 11.4637 3.78947 10.1603C4.36753 8.85684 5.2025 7.88462 6.29438 7.24359C7.38626 6.60256 8.69224 6.28205 10.2123 6.28205C11.8394 6.28205 13.2953 6.65598 14.5798 7.40385C15.8858 8.13034 16.9135 9.15598 17.6628 10.4808C18.4335 11.8056 18.8189 13.3654 18.8189 15.1603C18.8189 16.9765 18.4335 18.547 17.6628 19.8718C16.9135 21.1966 15.8858 22.2222 14.5798 22.9487C13.2953 23.6752 11.8394 24.0385 10.2123 24.0385ZM0 30V6.53846H4.78502V10.0641L4.68867 15.1923L5.00981 20.2885V30H0ZM9.34523 19.9359C10.1802 19.9359 10.9188 19.7436 11.5611 19.359C12.2248 18.9744 12.7493 18.4295 13.1347 17.7244C13.5415 16.9979 13.7449 16.1432 13.7449 15.1603C13.7449 14.156 13.5415 13.3013 13.1347 12.5962C12.7493 11.891 12.2248 11.3462 11.5611 10.9615C10.9188 10.5769 10.1802 10.3846 9.34523 10.3846C8.51026 10.3846 7.76093 10.5769 7.09724 10.9615C6.43354 11.3462 5.90901 11.891 5.52364 12.5962C5.13827 13.3013 4.94559 14.156 4.94559 15.1603C4.94559 16.1432 5.13827 16.9979 5.52364 17.7244C5.90901 18.4295 6.43354 18.9744 7.09724 19.359C7.76093 19.7436 8.51026 19.9359 9.34523 19.9359Z" fill="#087A91"/>
<path d="M22.1726 23.7821V0H27.1824V23.7821H22.1726Z" fill="#087A91"/>
<path d="M42.4296 23.7821V20.4167L42.1085 19.6795V13.6538C42.1085 12.5855 41.7766 11.7521 41.1129 11.1538C40.4707 10.5556 39.4751 10.2564 38.1263 10.2564C37.2057 10.2564 36.2958 10.406 35.3966 10.7051C34.5188 10.9829 33.7695 11.3675 33.1486 11.859L31.3502 8.36538C32.2922 7.70299 33.4269 7.19017 34.7543 6.82692C36.0817 6.46368 37.4305 6.28205 38.8007 6.28205C41.4341 6.28205 43.4787 6.90171 44.9345 8.14103C46.3904 9.38034 47.1183 11.3141 47.1183 13.9423V23.7821H42.4296ZM37.1629 24.0385C35.8141 24.0385 34.658 23.8141 33.6946 23.3654C32.7311 22.8953 31.9925 22.265 31.4787 21.4744C30.9649 20.6838 30.7079 19.797 30.7079 18.8141C30.7079 17.7885 30.9542 16.891 31.4466 16.1218C31.9604 15.3526 32.7632 14.7543 33.8551 14.3269C34.947 13.8782 36.3707 13.6538 38.1263 13.6538H42.7187V16.5705H38.6723C37.4947 16.5705 36.6812 16.7628 36.2316 17.1474C35.8034 17.5321 35.5893 18.0128 35.5893 18.5897C35.5893 19.2308 35.8355 19.7436 36.3279 20.1282C36.8418 20.4915 37.5376 20.6731 38.4154 20.6731C39.2503 20.6731 39.9996 20.4808 40.6633 20.0962C41.327 19.6902 41.8088 19.1026 42.1085 18.3333L42.8792 20.641C42.5153 21.7521 41.8516 22.5962 40.8881 23.1731C39.9247 23.75 38.683 24.0385 37.1629 24.0385Z" fill="#087A91"/>
<path d="M62.1538 6.28205C63.524 6.28205 64.7443 6.55983 65.8148 7.11538C66.9067 7.64957 67.763 8.48291 68.3839 9.61539C69.0048 10.7265 69.3152 12.1581 69.3152 13.9103V23.7821H64.3054V14.6795C64.3054 13.2906 63.995 12.265 63.3741 11.6026C62.7746 10.9402 61.9183 10.609 60.805 10.609C60.0128 10.609 59.2956 10.7799 58.6533 11.1218C58.0324 11.4423 57.54 11.9444 57.1761 12.6282C56.8335 13.312 56.6622 14.188 56.6622 15.2564V23.7821H51.6524V6.53846H56.4374V11.3141L55.5382 9.8718C56.1591 8.71795 57.0476 7.8312 58.2037 7.21154C59.3598 6.59188 60.6765 6.28205 62.1538 6.28205Z" fill="#087A91"/>
<path d="M80.9215 24.0385C78.8876 24.0385 77.3033 23.5256 76.1686 22.5C75.0339 21.453 74.4665 19.9038 74.4665 17.8526V2.72436H79.4764V17.7885C79.4764 18.515 79.669 19.0812 80.0544 19.4872C80.4398 19.8718 80.9643 20.0641 81.628 20.0641C82.4202 20.0641 83.0946 19.8504 83.6512 19.4231L85 22.9487C84.4862 23.312 83.8653 23.5897 83.1374 23.7821C82.4309 23.953 81.6922 24.0385 80.9215 24.0385ZM71.8011 10.7692V6.92308H83.7797V10.7692H71.8011Z" fill="#087A91"/>
</g>
</g>
</svg>
