<svg width="40" height="40" viewBox="0 0 40 40" fill="none" xmlns="http://www.w3.org/2000/svg">
<path d="M29.7166 21.2334C29.25 20.2834 27.9333 19.4834 26.1833 20.8334C23.8 22.7334 20 22.7334 20 22.7334C20 22.7334 16.2 22.7334 13.8166 20.8334C12.0666 19.4834 10.75 20.2834 10.2833 21.2334C9.44996 22.9 10.3833 23.7167 12.5 25.0667C14.3166 26.2334 16.8 26.6667 18.4 26.8334L17.0666 28.1667C15.1666 30.05 13.3333 31.8667 12.0833 33.1334C11.3333 33.9 11.3333 35.1167 12.0833 35.8334L12.3166 36.1C13.0666 36.85 14.3 36.85 15.05 36.1L20 31.1334C21.9166 33.0167 23.7333 34.8334 25 36.1C25.75 36.85 26.9666 36.85 27.7333 36.1L27.95 35.8334C28.7166 35.1167 28.7166 33.9 27.95 33.1334L22.9833 28.1667L21.6666 26.8167C23.25 26.6667 25.7 26.2167 27.5 25.0667C29.6166 23.7167 30.55 22.9 29.7166 21.2334ZM20 7.61671C22.3 7.61671 24.1666 9.48337 24.1666 11.7667C24.1666 14.0667 22.3 15.9167 20 15.9167C17.7 15.9167 15.8333 14.0667 15.8333 11.7667C15.8333 9.48337 17.7 7.61671 20 7.61671ZM20 20.2C24.6666 20.2 28.4333 16.4334 28.4333 11.7667C28.4333 9.53005 27.5448 7.385 25.9632 5.80344C24.3817 4.22188 22.2366 3.33337 20 3.33337C17.7633 3.33337 15.6183 4.22188 14.0367 5.80344C12.4551 7.385 11.5666 9.53005 11.5666 11.7667C11.5666 16.4334 15.3333 20.2 20 20.2Z" fill="#087A91"/>
</svg>
