<svg width="28" height="28" viewBox="0 0 28 28" fill="none" xmlns="http://www.w3.org/2000/svg">
<g id="profile">
<g id="Vector">
<path d="M14 13.2222C15.0768 13.2222 16.1295 12.9029 17.0248 12.3047C17.9201 11.7064 18.618 10.8561 19.03 9.86126C19.4421 8.86642 19.5499 7.77172 19.3399 6.7156C19.1298 5.65948 18.6112 4.68938 17.8498 3.92796C17.0884 3.16654 16.1183 2.648 15.0622 2.43793C14.0061 2.22785 12.9114 2.33567 11.9165 2.74775C10.9217 3.15983 10.0714 3.85765 9.47314 4.75299C8.8749 5.64832 8.55558 6.70095 8.55558 7.77776C8.55558 9.22172 9.12919 10.6065 10.1502 11.6276C11.1713 12.6486 12.5561 13.2222 14 13.2222ZM14 3.88887C14.7692 3.88887 15.5211 4.11695 16.1606 4.54427C16.8001 4.97158 17.2986 5.57895 17.5929 6.28955C17.8872 7.00015 17.9642 7.78207 17.8142 8.53644C17.6641 9.29081 17.2938 9.98375 16.7499 10.5276C16.206 11.0715 15.5131 11.4419 14.7587 11.5919C14.0043 11.742 13.2224 11.665 12.5118 11.3706C11.8012 11.0763 11.1939 10.5778 10.7665 9.93831C10.3392 9.29879 10.1111 8.54691 10.1111 7.77776C10.1111 6.74636 10.5209 5.75721 11.2502 5.0279C11.9795 4.29859 12.9686 3.88887 14 3.88887Z" fill="black"/>
<path d="M23.6989 18.9544C22.4516 17.6361 20.9485 16.586 19.2816 15.8684C17.6146 15.1507 15.8188 14.7806 14.0039 14.7806C12.189 14.7806 10.3932 15.1507 8.72627 15.8684C7.05932 16.586 5.55623 17.6361 4.30892 18.9544C4.03849 19.2433 3.8883 19.6243 3.88892 20.02V24.1111C3.88892 24.5237 4.05281 24.9193 4.34453 25.211C4.63625 25.5028 5.03191 25.6666 5.44447 25.6666H22.5556C22.9681 25.6666 23.3638 25.5028 23.6555 25.211C23.9473 24.9193 24.1111 24.5237 24.1111 24.1111V20.02C24.1139 19.6254 23.9665 19.2445 23.6989 18.9544ZM22.5556 24.1111H5.44447V20.0122C6.54676 18.8515 7.8737 17.9272 9.34453 17.2957C10.8154 16.6641 12.3993 16.3384 14 16.3384C15.6007 16.3384 17.1847 16.6641 18.6555 17.2957C20.1264 17.9272 21.4533 18.8515 22.5556 20.0122V24.1111Z" fill="black"/>
</g>
</g>
</svg>
