<svg width="40" height="40" viewBox="0 0 40 40" fill="none" xmlns="http://www.w3.org/2000/svg">
<path fill-rule="evenodd" clip-rule="evenodd" d="M37.8672 10.3125C38.1453 9.43125 37.8672 8.79062 36.6367 8.79062H32.5453C31.5133 8.79062 31.0367 9.35156 30.7586 9.95156C30.7586 9.95156 28.6539 15.0766 25.7148 18.3992C24.7617 19.3602 24.325 19.6805 23.8086 19.6805C23.5305 19.6805 23.1727 19.3602 23.1727 18.4797V10.2711C23.1727 9.23047 22.8555 8.75 21.9812 8.75H15.5469C14.9109 8.75 14.5141 9.23047 14.5141 9.71094C14.5141 10.7117 15.9836 10.9523 16.1422 13.7547V19.8438C16.1422 21.1648 15.9078 21.4062 15.3875 21.4062C13.9977 21.4062 10.6219 16.2414 8.59688 10.3562C8.20312 9.19062 7.80313 8.75 6.77031 8.75H2.63984C1.44844 8.75 1.25 9.31016 1.25 9.91094C1.25 10.9922 2.63984 16.4367 7.72344 23.643C11.0992 28.5648 15.9047 31.2102 20.2336 31.2102C22.8555 31.2102 23.1727 30.6094 23.1727 29.6086V25.8852C23.1727 24.6844 23.4109 24.4844 24.2453 24.4844C24.8406 24.4844 25.9133 24.8039 28.3359 27.1664C31.1156 29.9688 31.5922 31.25 33.1414 31.25H37.232C38.4234 31.25 38.9797 30.6492 38.6617 29.4883C38.3047 28.3273 36.9539 26.6461 35.2063 24.6445C34.2531 23.5242 32.8234 22.2828 32.3867 21.682C31.7914 20.8813 31.95 20.5609 32.3867 19.8406C32.3469 19.8406 37.3516 12.7141 37.8672 10.3094" fill="#087A91"/>
</svg>
